<mxfile host="app.diagrams.net" modified="2021-11-29T17:47:56.400Z" agent="5.0 (Windows NT 10.0; WOW64) AppleWebKit/537.36 (KHTML, like Gecko) Chrome/96.0.4664.45 Safari/537.36" etag="4ywqxocfS7JZ3LbuZqrB" version="15.8.3" type="github">
  <diagram name="Page-1" id="929967ad-93f9-6ef4-fab6-5d389245f69c">
    <mxGraphModel dx="5167" dy="2783" grid="1" gridSize="10" guides="1" tooltips="1" connect="1" arrows="1" fold="1" page="1" pageScale="1.5" pageWidth="1169" pageHeight="826" background="none" math="0" shadow="0">
      <root>
        <mxCell id="0" style=";html=1;" />
        <mxCell id="1" style=";html=1;" parent="0" />
        <mxCell id="1672d66443f91eb5-1" value="&lt;p style=&quot;margin: 0px ; margin-top: 4px ; margin-left: 10px ; text-align: left&quot;&gt;&lt;b&gt;bbd&lt;/b&gt;[block] Logical Block definition[AC Logical structure]&lt;/p&gt;" style="html=1;strokeWidth=1;shape=mxgraph.sysml.package;html=1;overflow=fill;whiteSpace=wrap;fillColor=none;gradientColor=none;fontSize=12;align=center;labelX=327.64;" parent="1" vertex="1">
          <mxGeometry x="35" y="25" width="1705" height="1190" as="geometry" />
        </mxCell>
        <mxCell id="1j4Bzb_2BgSO1hPeJjLn-6" style="edgeStyle=orthogonalEdgeStyle;rounded=0;orthogonalLoop=1;jettySize=auto;html=1;exitX=0.25;exitY=1;exitDx=0;exitDy=0;fontSize=11;startArrow=diamondThin;startFill=1;endArrow=open;endFill=0;" edge="1" parent="1" source="UlCgKMU-R_BX_2DzG77N-8" target="1j4Bzb_2BgSO1hPeJjLn-1">
          <mxGeometry relative="1" as="geometry" />
        </mxCell>
        <mxCell id="1j4Bzb_2BgSO1hPeJjLn-7" style="edgeStyle=orthogonalEdgeStyle;rounded=0;orthogonalLoop=1;jettySize=auto;html=1;entryX=0.5;entryY=0;entryDx=0;entryDy=0;fontSize=11;startArrow=diamondThin;startFill=1;endArrow=open;endFill=0;" edge="1" parent="1" source="UlCgKMU-R_BX_2DzG77N-8" target="1j4Bzb_2BgSO1hPeJjLn-3">
          <mxGeometry relative="1" as="geometry">
            <Array as="points">
              <mxPoint x="865" y="190" />
              <mxPoint x="865" y="190" />
            </Array>
          </mxGeometry>
        </mxCell>
        <mxCell id="1j4Bzb_2BgSO1hPeJjLn-8" style="edgeStyle=orthogonalEdgeStyle;rounded=0;orthogonalLoop=1;jettySize=auto;html=1;fontSize=11;startArrow=diamondThin;startFill=1;endArrow=open;endFill=0;entryX=0.5;entryY=0;entryDx=0;entryDy=0;" edge="1" parent="1" source="UlCgKMU-R_BX_2DzG77N-8" target="1j4Bzb_2BgSO1hPeJjLn-4">
          <mxGeometry relative="1" as="geometry">
            <Array as="points">
              <mxPoint x="930" y="210" />
              <mxPoint x="1205" y="210" />
            </Array>
          </mxGeometry>
        </mxCell>
        <mxCell id="1j4Bzb_2BgSO1hPeJjLn-9" style="edgeStyle=orthogonalEdgeStyle;rounded=0;orthogonalLoop=1;jettySize=auto;html=1;exitX=0.838;exitY=1.062;exitDx=0;exitDy=0;fontSize=11;startArrow=diamondThin;startFill=1;endArrow=open;endFill=0;exitPerimeter=0;entryX=0.5;entryY=0;entryDx=0;entryDy=0;" edge="1" parent="1" source="UlCgKMU-R_BX_2DzG77N-8" target="1j4Bzb_2BgSO1hPeJjLn-5">
          <mxGeometry relative="1" as="geometry">
            <Array as="points">
              <mxPoint x="991" y="140" />
              <mxPoint x="990" y="140" />
              <mxPoint x="990" y="185" />
              <mxPoint x="1515" y="185" />
            </Array>
          </mxGeometry>
        </mxCell>
        <mxCell id="1j4Bzb_2BgSO1hPeJjLn-40" style="edgeStyle=orthogonalEdgeStyle;rounded=0;orthogonalLoop=1;jettySize=auto;html=1;entryX=0.5;entryY=0;entryDx=0;entryDy=0;fontSize=11;startArrow=diamondThin;startFill=1;endArrow=open;endFill=0;exitX=0.105;exitY=0.997;exitDx=0;exitDy=0;exitPerimeter=0;" edge="1" parent="1" source="UlCgKMU-R_BX_2DzG77N-8" target="1j4Bzb_2BgSO1hPeJjLn-20">
          <mxGeometry relative="1" as="geometry">
            <Array as="points">
              <mxPoint x="772" y="170" />
              <mxPoint x="215" y="170" />
            </Array>
          </mxGeometry>
        </mxCell>
        <mxCell id="UlCgKMU-R_BX_2DzG77N-8" value="&lt;p style=&quot;margin: 13px&quot;&gt;&lt;font style=&quot;font-size: 11px&quot;&gt;&amp;lt;&amp;lt;block&amp;gt;&amp;gt;&lt;/font&gt;&lt;/p&gt;&lt;p style=&quot;margin: 13px&quot;&gt;&lt;b&gt;Unidade de Conforto térmico&lt;/b&gt;&lt;/p&gt;" style="shape=rect;html=1;overflow=fill;whiteSpace=wrap;align=center;" parent="1" vertex="1">
          <mxGeometry x="740" y="70" width="300" height="70" as="geometry" />
        </mxCell>
        <mxCell id="1j4Bzb_2BgSO1hPeJjLn-14" style="edgeStyle=orthogonalEdgeStyle;rounded=0;orthogonalLoop=1;jettySize=auto;html=1;exitX=0.25;exitY=1;exitDx=0;exitDy=0;fontSize=11;startArrow=diamondThin;startFill=1;endArrow=open;endFill=0;" edge="1" parent="1" source="UlCgKMU-R_BX_2DzG77N-9" target="1j4Bzb_2BgSO1hPeJjLn-10">
          <mxGeometry relative="1" as="geometry" />
        </mxCell>
        <mxCell id="1j4Bzb_2BgSO1hPeJjLn-15" style="edgeStyle=orthogonalEdgeStyle;rounded=0;orthogonalLoop=1;jettySize=auto;html=1;entryX=0.5;entryY=0;entryDx=0;entryDy=0;fontSize=11;startArrow=diamondThin;startFill=1;endArrow=open;endFill=0;" edge="1" parent="1" source="UlCgKMU-R_BX_2DzG77N-9" target="1j4Bzb_2BgSO1hPeJjLn-11">
          <mxGeometry relative="1" as="geometry" />
        </mxCell>
        <mxCell id="1j4Bzb_2BgSO1hPeJjLn-16" style="edgeStyle=orthogonalEdgeStyle;rounded=0;orthogonalLoop=1;jettySize=auto;html=1;exitX=0.75;exitY=1;exitDx=0;exitDy=0;fontSize=11;startArrow=diamondThin;startFill=1;endArrow=open;endFill=0;" edge="1" parent="1" source="UlCgKMU-R_BX_2DzG77N-9" target="1j4Bzb_2BgSO1hPeJjLn-12">
          <mxGeometry relative="1" as="geometry" />
        </mxCell>
        <mxCell id="UlCgKMU-R_BX_2DzG77N-9" value="&lt;p style=&quot;margin: 13px&quot;&gt;&lt;font style=&quot;font-size: 11px&quot;&gt;&amp;lt;&amp;lt;block&amp;gt;&amp;gt;&lt;/font&gt;&lt;/p&gt;&lt;p style=&quot;margin: 13px&quot;&gt;&lt;b&gt;Interface com o usuário&lt;/b&gt;&lt;/p&gt;" style="shape=rect;html=1;overflow=fill;whiteSpace=wrap;align=center;" parent="1" vertex="1">
          <mxGeometry x="655" y="470" width="300" height="90" as="geometry" />
        </mxCell>
        <mxCell id="1j4Bzb_2BgSO1hPeJjLn-1" value="&lt;p style=&quot;margin: 0px ; margin-top: 4px ; text-align: center&quot;&gt;&amp;lt;&amp;lt;block&amp;gt;&amp;gt;&lt;/p&gt;&lt;p style=&quot;margin: 0px ; margin-top: 4px ; text-align: center&quot;&gt;&amp;lt;&amp;lt;logical&amp;gt;&amp;gt;&lt;br&gt;&lt;b&gt;Controle de Temperatura&lt;/b&gt;&lt;/p&gt;&lt;hr&gt;&lt;p style=&quot;font-size: 10px ; margin: 0px ; text-align: center&quot;&gt;&lt;i&gt;constraints&lt;/i&gt;&lt;/p&gt;&lt;p style=&quot;margin: 0px ; margin-left: 8px ; text-align: left&quot;&gt;{Tmin=&amp;lt;Tdesejada=&amp;lt;Tmax}&lt;/p&gt;&lt;hr&gt;&lt;p style=&quot;font-size: 10px ; margin: 0px ; text-align: center&quot;&gt;&lt;/p&gt;&lt;p style=&quot;font-size: 10px ; margin: 0px ; text-align: center&quot;&gt;&lt;i&gt;values&lt;/i&gt;&lt;/p&gt;&lt;p style=&quot;margin: 0px ; margin-left: 8px ; text-align: left&quot;&gt;Tdesejada: Real = 20ºC&lt;br&gt;&lt;/p&gt;&lt;hr&gt;&lt;p style=&quot;font-size: 10px ; margin: 0px ; text-align: center&quot;&gt;&lt;i&gt;properties&lt;/i&gt;&lt;/p&gt;&lt;p style=&quot;margin: 0px ; margin-left: 8px ; text-align: left&quot;&gt;Tmin : Real = 15 ºC&lt;/p&gt;&lt;p style=&quot;margin: 0px ; margin-left: 8px ; text-align: left&quot;&gt;Tmax: Real = 30º C&lt;/p&gt;" style="shape=rect;html=1;overflow=fill;verticalAlign=top;align=left;whiteSpace=wrap;fontSize=11;" vertex="1" parent="1">
          <mxGeometry x="500" y="230" width="230" height="190" as="geometry" />
        </mxCell>
        <mxCell id="1j4Bzb_2BgSO1hPeJjLn-3" value="&lt;p style=&quot;margin: 0px ; margin-top: 4px ; text-align: center&quot;&gt;&amp;lt;&amp;lt;block&amp;gt;&amp;gt;&lt;/p&gt;&lt;p style=&quot;margin: 0px ; margin-top: 4px ; text-align: center&quot;&gt;&amp;lt;&amp;lt;Logical&amp;gt;&amp;gt;&lt;br&gt;&lt;b&gt;Ventilação&lt;/b&gt;&lt;/p&gt;&lt;hr&gt;&lt;p style=&quot;font-size: 10px ; margin: 0px ; text-align: center&quot;&gt;&lt;i&gt;constraints&lt;/i&gt;&lt;/p&gt;&lt;p style=&quot;margin: 0px ; margin-left: 8px ; text-align: left&quot;&gt;{Vvmin=&amp;lt;Vvdesejada=&amp;lt;vVmax}&lt;/p&gt;&lt;hr&gt;&lt;p style=&quot;font-size: 10px ; margin: 0px ; text-align: center&quot;&gt;&lt;/p&gt;&lt;p style=&quot;font-size: 10px ; margin: 0px ; text-align: center&quot;&gt;&lt;i&gt;values&lt;/i&gt;&lt;/p&gt;&lt;p style=&quot;margin: 0px ; margin-left: 8px ; text-align: left&quot;&gt;Vvdesejada: integer = 1&lt;br&gt;&lt;/p&gt;&lt;hr&gt;&lt;p style=&quot;font-size: 10px ; margin: 0px ; text-align: center&quot;&gt;&lt;i&gt;properties&lt;/i&gt;&lt;/p&gt;&lt;p style=&quot;margin: 0px ; margin-left: 8px ; text-align: left&quot;&gt;Vvmin : integer = 1&lt;/p&gt;&lt;p style=&quot;margin: 0px ; margin-left: 8px ; text-align: left&quot;&gt;Vvmax: integer = 5&lt;/p&gt;" style="shape=rect;html=1;overflow=fill;verticalAlign=top;align=left;whiteSpace=wrap;fontSize=11;" vertex="1" parent="1">
          <mxGeometry x="750" y="240" width="230" height="190" as="geometry" />
        </mxCell>
        <mxCell id="1j4Bzb_2BgSO1hPeJjLn-4" value="&lt;p style=&quot;margin: 0px ; margin-top: 4px ; text-align: center&quot;&gt;&amp;lt;&amp;lt;block&amp;gt;&amp;gt;&lt;/p&gt;&lt;p style=&quot;margin: 0px ; margin-top: 4px ; text-align: center&quot;&gt;&amp;lt;&amp;lt;Logical&amp;gt;&amp;gt;&lt;br&gt;&lt;b&gt;Recirculação&lt;/b&gt;&lt;/p&gt;&lt;hr&gt;&lt;p style=&quot;font-size: 10px ; margin: 0px ; text-align: center&quot;&gt;&lt;/p&gt;&lt;p style=&quot;font-size: 10px ; margin: 0px ; text-align: center&quot;&gt;&lt;/p&gt;&lt;p style=&quot;font-size: 10px ; margin: 0px ; text-align: center&quot;&gt;&lt;i&gt;values&lt;/i&gt;&lt;/p&gt;&lt;p style=&quot;margin: 0px ; margin-left: 8px ; text-align: left&quot;&gt;Status: bool = 0&lt;br&gt;&lt;/p&gt;&lt;p style=&quot;margin: 0px ; margin-left: 8px ; text-align: left&quot;&gt;Uatual: real&lt;/p&gt;&lt;p style=&quot;margin: 0px ; margin-left: 8px ; text-align: left&quot;&gt;&lt;br&gt;&lt;/p&gt;&lt;hr&gt;&lt;p style=&quot;font-size: 10px ; margin: 0px ; text-align: center&quot;&gt;&lt;i&gt;properties&lt;/i&gt;&lt;/p&gt;&lt;p style=&quot;font-size: 10px ; margin: 0px ; text-align: center&quot;&gt;&lt;i&gt;&lt;br&gt;&lt;/i&gt;&lt;/p&gt;&lt;p style=&quot;margin: 0px ; margin-left: 8px ; text-align: left&quot;&gt;UmidadeMin: real = 80%&lt;br&gt;&lt;/p&gt;" style="shape=rect;html=1;overflow=fill;verticalAlign=top;align=left;whiteSpace=wrap;fontSize=11;" vertex="1" parent="1">
          <mxGeometry x="1090" y="260" width="230" height="170" as="geometry" />
        </mxCell>
        <mxCell id="1j4Bzb_2BgSO1hPeJjLn-5" value="&lt;p style=&quot;margin: 0px ; margin-top: 4px ; text-align: center&quot;&gt;&amp;lt;&amp;lt;block&amp;gt;&amp;gt;&lt;/p&gt;&lt;p style=&quot;margin: 0px ; margin-top: 4px ; text-align: center&quot;&gt;&amp;lt;&amp;lt;Logical&amp;gt;&amp;gt;&lt;br&gt;&lt;b&gt;Distribuição de ar&lt;/b&gt;&lt;/p&gt;&lt;hr&gt;&lt;p style=&quot;font-size: 10px ; margin: 0px ; text-align: center&quot;&gt;&lt;i&gt;constraints&lt;/i&gt;&lt;/p&gt;&lt;p style=&quot;margin: 0px ; margin-left: 8px ; text-align: left&quot;&gt;{PosDesejada = [Parabrisa || Centro || Pés]}&lt;/p&gt;&lt;hr&gt;&lt;p style=&quot;font-size: 10px ; margin: 0px ; text-align: center&quot;&gt;&lt;/p&gt;&lt;p style=&quot;font-size: 10px ; margin: 0px ; text-align: center&quot;&gt;&lt;i&gt;values&lt;/i&gt;&lt;/p&gt;&lt;p style=&quot;margin: 0px ; margin-left: 8px ; text-align: left&quot;&gt;PosDesejadaValue: PosDesejada = 1&lt;br&gt;&lt;/p&gt;&lt;hr&gt;&lt;p style=&quot;font-size: 10px ; margin: 0px ; text-align: center&quot;&gt;&lt;i&gt;properties&lt;/i&gt;&lt;/p&gt;&lt;p style=&quot;font-size: 10px ; margin: 0px ; text-align: center&quot;&gt;&lt;i&gt;&lt;br&gt;&lt;/i&gt;&lt;/p&gt;&amp;nbsp; &amp;nbsp;Parabrisa: PosDesejada = 0&lt;p style=&quot;margin: 0px ; margin-left: 8px ; text-align: left&quot;&gt;Centro: PosDesejada = 1&lt;/p&gt;&lt;p style=&quot;margin: 0px 0px 0px 8px&quot;&gt;&lt;span&gt;Pés : PosDesejada = 2&lt;/span&gt;&lt;br&gt;&lt;/p&gt;" style="shape=rect;html=1;overflow=fill;verticalAlign=top;align=left;whiteSpace=wrap;fontSize=11;" vertex="1" parent="1">
          <mxGeometry x="1400" y="230" width="230" height="210" as="geometry" />
        </mxCell>
        <mxCell id="1j4Bzb_2BgSO1hPeJjLn-10" value="&lt;p style=&quot;margin: 0px ; margin-top: 4px ; text-align: center&quot;&gt;&amp;lt;&amp;lt;block&amp;gt;&amp;gt;&lt;/p&gt;&lt;p style=&quot;margin: 0px ; margin-top: 4px ; text-align: center&quot;&gt;&lt;b&gt;Botão - Knob&lt;/b&gt;&lt;/p&gt;&lt;hr&gt;&lt;p style=&quot;font-size: 10px ; margin: 0px ; text-align: center&quot;&gt;&lt;i&gt;constraints&lt;/i&gt;&lt;/p&gt;&lt;p style=&quot;margin: 0px ; margin-left: 8px ; text-align: left&quot;&gt;{min=&amp;lt;desejado=&amp;lt;max}&lt;/p&gt;&lt;p style=&quot;margin: 0px ; margin-left: 8px ; text-align: left&quot;&gt;Incremento = delta&lt;/p&gt;&lt;hr&gt;&lt;p style=&quot;font-size: 10px ; margin: 0px ; text-align: center&quot;&gt;&lt;/p&gt;&lt;p style=&quot;font-size: 10px ; margin: 0px ; text-align: center&quot;&gt;&lt;i&gt;values&lt;/i&gt;&lt;/p&gt;&lt;p style=&quot;margin: 0px ; margin-left: 8px ; text-align: left&quot;&gt;delta: Real&amp;nbsp;&lt;br&gt;&lt;/p&gt;&lt;p style=&quot;margin: 0px ; margin-left: 8px ; text-align: left&quot;&gt;Sentido: bool&lt;/p&gt;&lt;hr&gt;&lt;p style=&quot;font-size: 10px ; margin: 0px ; text-align: center&quot;&gt;&lt;i&gt;properties&lt;/i&gt;&lt;/p&gt;&lt;p style=&quot;margin: 0px ; margin-left: 8px ; text-align: left&quot;&gt;min : Real&lt;/p&gt;&lt;p style=&quot;margin: 0px ; margin-left: 8px ; text-align: left&quot;&gt;max: Real&lt;/p&gt;&lt;p style=&quot;margin: 0px ; margin-left: 8px ; text-align: left&quot;&gt;Positivo: Sentido = 1&lt;/p&gt;&lt;p style=&quot;margin: 0px ; margin-left: 8px ; text-align: left&quot;&gt;Negativo: Sentido = 0&amp;nbsp;&lt;/p&gt;" style="shape=rect;html=1;overflow=fill;verticalAlign=top;align=left;whiteSpace=wrap;fontSize=11;" vertex="1" parent="1">
          <mxGeometry x="200" y="650" width="230" height="220" as="geometry" />
        </mxCell>
        <mxCell id="1j4Bzb_2BgSO1hPeJjLn-11" value="&lt;p style=&quot;margin: 0px ; margin-top: 4px ; text-align: center&quot;&gt;&amp;lt;&amp;lt;block&amp;gt;&amp;gt;&lt;/p&gt;&lt;p style=&quot;margin: 0px ; margin-top: 4px ; text-align: center&quot;&gt;&lt;b&gt;Botão - Press&lt;/b&gt;&lt;/p&gt;&lt;hr&gt;&lt;p style=&quot;font-size: 10px ; margin: 0px ; text-align: center&quot;&gt;&lt;i&gt;constraints&lt;/i&gt;&lt;/p&gt;&lt;p style=&quot;margin: 0px ; margin-left: 8px ; text-align: left&quot;&gt;{Pos desejada in PosPossiveis}&lt;/p&gt;&lt;hr&gt;&lt;p style=&quot;font-size: 10px ; margin: 0px ; text-align: center&quot;&gt;&lt;/p&gt;&lt;p style=&quot;font-size: 10px ; margin: 0px ; text-align: center&quot;&gt;&lt;i&gt;values&lt;/i&gt;&lt;/p&gt;&lt;p style=&quot;margin: 0px ; margin-left: 8px ; text-align: left&quot;&gt;PosPossivel: vetor[Quantidade]&amp;nbsp;&lt;br&gt;&lt;/p&gt;&lt;p style=&quot;margin: 0px ; margin-left: 8px ; text-align: left&quot;&gt;n: integer&amp;nbsp;&lt;/p&gt;&lt;p style=&quot;margin: 0px ; margin-left: 8px ; text-align: left&quot;&gt;Status: bool&lt;/p&gt;&lt;p style=&quot;font-size: 10px ; margin: 0px ; text-align: center&quot;&gt;&lt;br&gt;&lt;/p&gt;" style="shape=rect;html=1;overflow=fill;verticalAlign=top;align=left;whiteSpace=wrap;fontSize=11;" vertex="1" parent="1">
          <mxGeometry x="670" y="670" width="230" height="150" as="geometry" />
        </mxCell>
        <mxCell id="1j4Bzb_2BgSO1hPeJjLn-12" value="&lt;p style=&quot;margin: 0px ; margin-top: 4px ; text-align: center&quot;&gt;&amp;lt;&amp;lt;block&amp;gt;&amp;gt;&lt;/p&gt;&lt;p style=&quot;margin: 0px ; margin-top: 4px ; text-align: center&quot;&gt;&lt;b&gt;Display Valor&lt;/b&gt;&lt;/p&gt;&lt;hr&gt;&lt;p style=&quot;font-size: 10px ; margin: 0px ; text-align: center&quot;&gt;&lt;i&gt;constraints&lt;/i&gt;&lt;/p&gt;&lt;p style=&quot;margin: 0px ; margin-left: 8px ; text-align: left&quot;&gt;{min&amp;lt;vExibido&amp;lt;max}&lt;/p&gt;&lt;hr&gt;&lt;p style=&quot;font-size: 10px ; margin: 0px ; text-align: center&quot;&gt;&lt;/p&gt;&lt;p style=&quot;font-size: 10px ; margin: 0px ; text-align: center&quot;&gt;&lt;i&gt;values&lt;/i&gt;&lt;/p&gt;&lt;p style=&quot;margin: 0px ; margin-left: 8px ; text-align: left&quot;&gt;sinal: bool&amp;nbsp;&lt;br&gt;&lt;/p&gt;&lt;p style=&quot;margin: 0px ; margin-left: 8px ; text-align: left&quot;&gt;Unidade: string&lt;/p&gt;&lt;hr&gt;&lt;p style=&quot;font-size: 10px ; margin: 0px ; text-align: center&quot;&gt;&lt;i&gt;properties&lt;/i&gt;&lt;/p&gt;&lt;p style=&quot;margin: 0px ; margin-left: 8px ; text-align: left&quot;&gt;min : Real&lt;/p&gt;&lt;p style=&quot;margin: 0px ; margin-left: 8px ; text-align: left&quot;&gt;max: Real&lt;/p&gt;&lt;p style=&quot;margin: 0px ; margin-left: 8px ; text-align: left&quot;&gt;Positivo: sinal = 1&lt;/p&gt;&lt;p style=&quot;margin: 0px ; margin-left: 8px ; text-align: left&quot;&gt;Negativo: sinal = 0&lt;/p&gt;&lt;p style=&quot;margin: 0px ; margin-left: 8px ; text-align: left&quot;&gt;Simbolo: Unidade de medida&amp;nbsp;&lt;/p&gt;" style="shape=rect;html=1;overflow=fill;verticalAlign=top;align=left;whiteSpace=wrap;fontSize=11;" vertex="1" parent="1">
          <mxGeometry x="1180" y="650" width="230" height="230" as="geometry" />
        </mxCell>
        <mxCell id="1j4Bzb_2BgSO1hPeJjLn-36" style="edgeStyle=orthogonalEdgeStyle;rounded=0;orthogonalLoop=1;jettySize=auto;html=1;entryX=0.5;entryY=1;entryDx=0;entryDy=0;fontSize=11;startArrow=none;startFill=0;endArrow=block;endFill=0;" edge="1" parent="1" source="1j4Bzb_2BgSO1hPeJjLn-19" target="1j4Bzb_2BgSO1hPeJjLn-10">
          <mxGeometry relative="1" as="geometry" />
        </mxCell>
        <mxCell id="1j4Bzb_2BgSO1hPeJjLn-19" value="&lt;p style=&quot;margin: 0px ; margin-top: 4px ; text-align: center&quot;&gt;&amp;lt;&amp;lt;block&amp;gt;&amp;gt;&lt;/p&gt;&lt;p style=&quot;margin: 0px ; margin-top: 4px ; text-align: center&quot;&gt;&lt;b&gt;BK - Temperatura&lt;/b&gt;&lt;/p&gt;&lt;hr&gt;&lt;p style=&quot;font-size: 10px ; margin: 0px ; text-align: center&quot;&gt;&lt;i&gt;constraints&lt;/i&gt;&lt;/p&gt;&lt;p style=&quot;margin: 0px ; margin-left: 8px ; text-align: left&quot;&gt;{Tmin=&amp;lt;Vdesejado=&amp;lt;Tmax}&lt;/p&gt;&lt;p style=&quot;margin: 0px ; margin-left: 8px ; text-align: left&quot;&gt;IncrementoT = deltaT&lt;/p&gt;&lt;hr&gt;&lt;p style=&quot;font-size: 10px ; margin: 0px ; text-align: center&quot;&gt;&lt;/p&gt;&lt;p style=&quot;font-size: 10px ; margin: 0px ; text-align: center&quot;&gt;&lt;i&gt;values&lt;/i&gt;&lt;/p&gt;&lt;p style=&quot;margin: 0px ; margin-left: 8px ; text-align: left&quot;&gt;deltaT: Real = 0.5ºC&lt;br&gt;&lt;/p&gt;&lt;p style=&quot;margin: 0px ; margin-left: 8px ; text-align: left&quot;&gt;Sentido: bool&lt;/p&gt;&lt;hr&gt;&lt;p style=&quot;font-size: 10px ; margin: 0px ; text-align: center&quot;&gt;&lt;i&gt;properties&lt;/i&gt;&lt;/p&gt;&lt;p style=&quot;margin: 0px 0px 0px 8px&quot;&gt;Tmin : Real = 15 ºC&lt;/p&gt;&lt;p style=&quot;margin: 0px 0px 0px 8px&quot;&gt;Tmax: Real = 30º C&lt;/p&gt;&lt;p style=&quot;margin: 0px ; margin-left: 8px ; text-align: left&quot;&gt;Positivo: Sentido = 1&lt;/p&gt;&lt;p style=&quot;margin: 0px ; margin-left: 8px ; text-align: left&quot;&gt;Negativo: Sentido = 0&amp;nbsp;&lt;/p&gt;" style="shape=rect;html=1;overflow=fill;verticalAlign=top;align=left;whiteSpace=wrap;fontSize=11;" vertex="1" parent="1">
          <mxGeometry x="60" y="920" width="230" height="220" as="geometry" />
        </mxCell>
        <mxCell id="1j4Bzb_2BgSO1hPeJjLn-20" value="&lt;p style=&quot;margin: 0px ; margin-top: 4px ; text-align: center&quot;&gt;&amp;lt;&amp;lt;block&amp;gt;&amp;gt;&lt;/p&gt;&lt;p style=&quot;margin: 0px ; margin-top: 4px ; text-align: center&quot;&gt;&amp;lt;&amp;lt;logical&amp;gt;&amp;gt;&lt;br&gt;&lt;b&gt;Leitura&amp;nbsp; de dados&lt;/b&gt;&lt;/p&gt;&lt;hr&gt;&lt;p style=&quot;font-size: 10px ; margin: 0px ; text-align: center&quot;&gt;&lt;i&gt;constraints&lt;/i&gt;&lt;/p&gt;&lt;p style=&quot;margin: 0px ; margin-left: 8px ; text-align: left&quot;&gt;{TLeitMax &amp;lt; Tatual&amp;lt; TLeitMax}&lt;/p&gt;&amp;nbsp; &amp;nbsp;{UmdMin&amp;lt;UmdAtual&amp;lt; UmdMax}&lt;br&gt;&lt;hr&gt;&lt;p style=&quot;font-size: 10px ; margin: 0px ; text-align: center&quot;&gt;&lt;/p&gt;&lt;p style=&quot;font-size: 10px ; margin: 0px ; text-align: center&quot;&gt;&lt;i&gt;values&lt;/i&gt;&lt;/p&gt;&lt;p style=&quot;margin: 0px ; margin-left: 8px ; text-align: left&quot;&gt;TLida: Real&amp;nbsp;&lt;br&gt;&lt;/p&gt;&lt;p style=&quot;margin: 0px ; margin-left: 8px ; text-align: left&quot;&gt;ULida: Real&lt;/p&gt;&lt;hr&gt;&lt;p style=&quot;font-size: 10px ; margin: 0px ; text-align: center&quot;&gt;&lt;i&gt;properties&lt;/i&gt;&lt;/p&gt;&lt;p style=&quot;margin: 0px ; margin-left: 8px ; text-align: left&quot;&gt;Tmin : Real = -30 ºC&lt;/p&gt;&lt;p style=&quot;margin: 0px ; margin-left: 8px ; text-align: left&quot;&gt;Tmax: Real = 75 ºC&lt;/p&gt;&lt;p style=&quot;margin: 0px ; margin-left: 8px ; text-align: left&quot;&gt;UmdMin: Real = 0&lt;/p&gt;&lt;p style=&quot;margin: 0px ; margin-left: 8px ; text-align: left&quot;&gt;UmdMax: Real = 100%&lt;/p&gt;" style="shape=rect;html=1;overflow=fill;verticalAlign=top;align=left;whiteSpace=wrap;fontSize=11;" vertex="1" parent="1">
          <mxGeometry x="90" y="230" width="250" height="230" as="geometry" />
        </mxCell>
        <mxCell id="1j4Bzb_2BgSO1hPeJjLn-37" style="edgeStyle=orthogonalEdgeStyle;rounded=0;orthogonalLoop=1;jettySize=auto;html=1;entryX=0.5;entryY=1;entryDx=0;entryDy=0;fontSize=11;startArrow=none;startFill=0;endArrow=block;endFill=0;" edge="1" parent="1" source="1j4Bzb_2BgSO1hPeJjLn-21" target="1j4Bzb_2BgSO1hPeJjLn-10">
          <mxGeometry relative="1" as="geometry" />
        </mxCell>
        <mxCell id="1j4Bzb_2BgSO1hPeJjLn-21" value="&lt;p style=&quot;margin: 0px ; margin-top: 4px ; text-align: center&quot;&gt;&amp;lt;&amp;lt;block&amp;gt;&amp;gt;&lt;/p&gt;&lt;p style=&quot;margin: 0px ; margin-top: 4px ; text-align: center&quot;&gt;&lt;b&gt;BK - Velocidade&lt;/b&gt;&lt;/p&gt;&lt;hr&gt;&lt;p style=&quot;font-size: 10px ; margin: 0px ; text-align: center&quot;&gt;&lt;i&gt;constraints&lt;/i&gt;&lt;/p&gt;&lt;p style=&quot;margin: 0px ; margin-left: 8px ; text-align: left&quot;&gt;{Vvmin=&amp;lt;Vvdesejado=&amp;lt;Vvmax}&lt;/p&gt;&lt;p style=&quot;margin: 0px ; margin-left: 8px ; text-align: left&quot;&gt;IncrementoVv = deltaVv&lt;/p&gt;&lt;hr&gt;&lt;p style=&quot;font-size: 10px ; margin: 0px ; text-align: center&quot;&gt;&lt;/p&gt;&lt;p style=&quot;font-size: 10px ; margin: 0px ; text-align: center&quot;&gt;&lt;i&gt;values&lt;/i&gt;&lt;/p&gt;&lt;p style=&quot;margin: 0px ; margin-left: 8px ; text-align: left&quot;&gt;deltaVv: Real =1&lt;br&gt;&lt;/p&gt;&lt;p style=&quot;margin: 0px ; margin-left: 8px ; text-align: left&quot;&gt;Sentido: bool&lt;/p&gt;&lt;hr&gt;&lt;p style=&quot;font-size: 10px ; margin: 0px ; text-align: center&quot;&gt;&lt;i&gt;properties&lt;/i&gt;&lt;/p&gt;&lt;p style=&quot;margin: 0px 0px 0px 8px&quot;&gt;Tmin : Real = 1&lt;/p&gt;&lt;p style=&quot;margin: 0px 0px 0px 8px&quot;&gt;Tmax: Real =5&lt;/p&gt;&lt;p style=&quot;margin: 0px ; margin-left: 8px ; text-align: left&quot;&gt;Positivo: Sentido = 1&lt;/p&gt;&lt;p style=&quot;margin: 0px ; margin-left: 8px ; text-align: left&quot;&gt;Negativo: Sentido = 0&amp;nbsp;&lt;/p&gt;" style="shape=rect;html=1;overflow=fill;verticalAlign=top;align=left;whiteSpace=wrap;fontSize=11;" vertex="1" parent="1">
          <mxGeometry x="300" y="920" width="230" height="220" as="geometry" />
        </mxCell>
        <mxCell id="1j4Bzb_2BgSO1hPeJjLn-35" style="edgeStyle=orthogonalEdgeStyle;rounded=0;orthogonalLoop=1;jettySize=auto;html=1;fontSize=11;startArrow=none;startFill=0;endArrow=block;endFill=0;exitX=0.5;exitY=0;exitDx=0;exitDy=0;entryX=0.5;entryY=1;entryDx=0;entryDy=0;" edge="1" parent="1" source="1j4Bzb_2BgSO1hPeJjLn-23" target="1j4Bzb_2BgSO1hPeJjLn-11">
          <mxGeometry relative="1" as="geometry">
            <mxPoint x="780" y="820" as="targetPoint" />
          </mxGeometry>
        </mxCell>
        <mxCell id="1j4Bzb_2BgSO1hPeJjLn-23" value="&lt;p style=&quot;margin: 0px ; margin-top: 4px ; text-align: center&quot;&gt;&amp;lt;&amp;lt;block&amp;gt;&amp;gt;&lt;/p&gt;&lt;p style=&quot;margin: 0px ; margin-top: 4px ; text-align: center&quot;&gt;&lt;b&gt;BK - ON/OFF&lt;/b&gt;&lt;/p&gt;&lt;hr&gt;&lt;p style=&quot;font-size: 10px ; margin: 0px ; text-align: center&quot;&gt;&lt;i&gt;constraints&lt;/i&gt;&lt;/p&gt;&lt;p style=&quot;margin: 0px ; margin-left: 8px ; text-align: left&quot;&gt;{Status in PosPossiveis}&lt;/p&gt;&lt;hr&gt;&lt;p style=&quot;font-size: 10px ; margin: 0px ; text-align: center&quot;&gt;&lt;/p&gt;&lt;p style=&quot;font-size: 10px ; margin: 0px ; text-align: center&quot;&gt;&lt;i&gt;values&lt;/i&gt;&lt;/p&gt;&amp;nbsp; Quantidade: integer = 2&amp;nbsp;&lt;br&gt;&amp;nbsp; PosPossiveis: vetor[Quantidade] = [ON; OFF]&lt;br&gt;&lt;p style=&quot;margin: 0px ; margin-left: 8px ; text-align: left&quot;&gt;&lt;span&gt;Status: bool = 0&lt;/span&gt;&lt;br&gt;&lt;/p&gt;&lt;hr&gt;&lt;p style=&quot;font-size: 10px ; margin: 0px ; text-align: center&quot;&gt;&lt;i&gt;properties&lt;/i&gt;&lt;/p&gt;&lt;p style=&quot;margin: 0px 0px 0px 8px&quot;&gt;&lt;br&gt;&lt;/p&gt;&lt;p style=&quot;margin: 0px ; margin-left: 8px ; text-align: left&quot;&gt;ON: Staus = 1&lt;/p&gt;&lt;p style=&quot;margin: 0px ; margin-left: 8px ; text-align: left&quot;&gt;OFF: Status = 0&amp;nbsp;&lt;/p&gt;" style="shape=rect;html=1;overflow=fill;verticalAlign=top;align=left;whiteSpace=wrap;fontSize=11;" vertex="1" parent="1">
          <mxGeometry x="540" y="870" width="230" height="220" as="geometry" />
        </mxCell>
        <mxCell id="1j4Bzb_2BgSO1hPeJjLn-34" style="edgeStyle=orthogonalEdgeStyle;rounded=0;orthogonalLoop=1;jettySize=auto;html=1;entryX=0.5;entryY=1;entryDx=0;entryDy=0;fontSize=11;startArrow=none;startFill=0;endArrow=block;endFill=0;" edge="1" parent="1" source="1j4Bzb_2BgSO1hPeJjLn-24" target="1j4Bzb_2BgSO1hPeJjLn-11">
          <mxGeometry relative="1" as="geometry" />
        </mxCell>
        <mxCell id="1j4Bzb_2BgSO1hPeJjLn-24" value="&lt;p style=&quot;margin: 0px ; margin-top: 4px ; text-align: center&quot;&gt;&amp;lt;&amp;lt;block&amp;gt;&amp;gt;&lt;/p&gt;&lt;p style=&quot;margin: 0px ; margin-top: 4px ; text-align: center&quot;&gt;&lt;b&gt;BK - Direcionador de ar&lt;/b&gt;&lt;/p&gt;&lt;hr&gt;&lt;p style=&quot;font-size: 10px ; margin: 0px ; text-align: center&quot;&gt;&lt;i&gt;constraints&lt;/i&gt;&lt;/p&gt;&lt;p style=&quot;margin: 0px ; margin-left: 8px ; text-align: left&quot;&gt;{Status in PosPossiveis}&lt;/p&gt;&lt;hr&gt;&lt;p style=&quot;font-size: 10px ; margin: 0px ; text-align: center&quot;&gt;&lt;/p&gt;&lt;p style=&quot;font-size: 10px ; margin: 0px ; text-align: center&quot;&gt;&lt;i&gt;values&lt;/i&gt;&lt;/p&gt;&amp;nbsp; Quantidade: integer = 3&amp;nbsp;&lt;br&gt;&amp;nbsp; PosPossiveis: vetor[Quantidade] = [Parabrisa; Centro; Pés]]&lt;br&gt;&lt;p style=&quot;margin: 0px ; margin-left: 8px ; text-align: left&quot;&gt;&lt;span&gt;StatusDA: PosDesejada =1&lt;/span&gt;&lt;/p&gt;&lt;hr&gt;&lt;p style=&quot;font-size: 10px ; margin: 0px ; text-align: center&quot;&gt;&lt;i&gt;properties&lt;/i&gt;&lt;/p&gt;&lt;p style=&quot;margin: 0px 0px 0px 8px&quot;&gt;Parabrisa: PosDesejada = 0&lt;/p&gt;&lt;p style=&quot;margin: 0px 0px 0px 8px&quot;&gt;Centro: PosDesejada = 1&lt;/p&gt;&lt;p style=&quot;margin: 0px 0px 0px 8px&quot;&gt;Pés : PosDesejada = 2&lt;/p&gt;" style="shape=rect;html=1;overflow=fill;verticalAlign=top;align=left;whiteSpace=wrap;fontSize=11;" vertex="1" parent="1">
          <mxGeometry x="780" y="870" width="230" height="230" as="geometry" />
        </mxCell>
        <mxCell id="1j4Bzb_2BgSO1hPeJjLn-33" style="edgeStyle=orthogonalEdgeStyle;rounded=0;orthogonalLoop=1;jettySize=auto;html=1;fontSize=11;startArrow=none;startFill=0;endArrow=block;endFill=0;exitX=0.5;exitY=0;exitDx=0;exitDy=0;" edge="1" parent="1" source="1j4Bzb_2BgSO1hPeJjLn-25">
          <mxGeometry relative="1" as="geometry">
            <mxPoint x="1300" y="880" as="targetPoint" />
          </mxGeometry>
        </mxCell>
        <mxCell id="1j4Bzb_2BgSO1hPeJjLn-25" value="&lt;p style=&quot;margin: 0px ; margin-top: 4px ; text-align: center&quot;&gt;&amp;lt;&amp;lt;block&amp;gt;&amp;gt;&lt;/p&gt;&lt;p style=&quot;margin: 0px ; margin-top: 4px ; text-align: center&quot;&gt;&lt;b&gt;Disp Temp externa&lt;/b&gt;&lt;/p&gt;&lt;hr&gt;&lt;p style=&quot;font-size: 10px ; margin: 0px ; text-align: center&quot;&gt;&lt;i&gt;constraints&lt;/i&gt;&lt;/p&gt;&lt;p style=&quot;margin: 0px ; margin-left: 8px ; text-align: left&quot;&gt;{ToutMin&amp;lt;ToutAtual&amp;lt;TouMax}&lt;/p&gt;&lt;hr&gt;&lt;p style=&quot;font-size: 10px ; margin: 0px ; text-align: center&quot;&gt;&lt;/p&gt;&lt;p style=&quot;font-size: 10px ; margin: 0px ; text-align: center&quot;&gt;&lt;i&gt;values&lt;/i&gt;&lt;/p&gt;&lt;p style=&quot;margin: 0px ; margin-left: 8px ; text-align: left&quot;&gt;sinal: bool&amp;nbsp;&lt;br&gt;&lt;/p&gt;&lt;p style=&quot;margin: 0px ; margin-left: 8px ; text-align: left&quot;&gt;ToutAtual: real&lt;/p&gt;&lt;hr&gt;&lt;p style=&quot;font-size: 10px ; margin: 0px ; text-align: center&quot;&gt;&lt;i&gt;properties&lt;/i&gt;&lt;/p&gt;&lt;p style=&quot;margin: 0px ; margin-left: 8px ; text-align: left&quot;&gt;ToutMin : Real = -30&lt;/p&gt;&lt;p style=&quot;margin: 0px ; margin-left: 8px ; text-align: left&quot;&gt;ToutMax: Real = 75&lt;/p&gt;&lt;p style=&quot;margin: 0px ; margin-left: 8px ; text-align: left&quot;&gt;Positivo: sinal = 1&lt;/p&gt;&lt;p style=&quot;margin: 0px ; margin-left: 8px ; text-align: left&quot;&gt;Negativo: sinal = 0&lt;/p&gt;&lt;p style=&quot;margin: 0px ; margin-left: 8px ; text-align: left&quot;&gt;UniTout: string = &quot;°C&quot;&lt;/p&gt;" style="shape=rect;html=1;overflow=fill;verticalAlign=top;align=left;whiteSpace=wrap;fontSize=11;" vertex="1" parent="1">
          <mxGeometry x="1020" y="970" width="230" height="230" as="geometry" />
        </mxCell>
        <mxCell id="1j4Bzb_2BgSO1hPeJjLn-32" style="edgeStyle=orthogonalEdgeStyle;rounded=0;orthogonalLoop=1;jettySize=auto;html=1;exitX=0.5;exitY=0;exitDx=0;exitDy=0;fontSize=11;startArrow=none;startFill=0;endArrow=block;endFill=0;" edge="1" parent="1" source="1j4Bzb_2BgSO1hPeJjLn-28">
          <mxGeometry relative="1" as="geometry">
            <mxPoint x="1300" y="880" as="targetPoint" />
          </mxGeometry>
        </mxCell>
        <mxCell id="1j4Bzb_2BgSO1hPeJjLn-28" value="&lt;p style=&quot;margin: 0px ; margin-top: 4px ; text-align: center&quot;&gt;&amp;lt;&amp;lt;block&amp;gt;&amp;gt;&lt;/p&gt;&lt;p style=&quot;margin: 0px ; margin-top: 4px ; text-align: center&quot;&gt;&lt;b&gt;Disp Temp cabine&lt;/b&gt;&lt;/p&gt;&lt;hr&gt;&lt;p style=&quot;font-size: 10px ; margin: 0px ; text-align: center&quot;&gt;&lt;i&gt;constraints&lt;/i&gt;&lt;/p&gt;&lt;p style=&quot;margin: 0px ; margin-left: 8px ; text-align: left&quot;&gt;{TcabMin&amp;lt;TcabAtual&amp;lt;TcabMax}&lt;/p&gt;&lt;hr&gt;&lt;p style=&quot;font-size: 10px ; margin: 0px ; text-align: center&quot;&gt;&lt;/p&gt;&lt;p style=&quot;font-size: 10px ; margin: 0px ; text-align: center&quot;&gt;&lt;i&gt;values&lt;/i&gt;&lt;/p&gt;&lt;p style=&quot;margin: 0px ; margin-left: 8px ; text-align: left&quot;&gt;sinal: bool&amp;nbsp;&lt;br&gt;&lt;/p&gt;&lt;p style=&quot;margin: 0px ; margin-left: 8px ; text-align: left&quot;&gt;TcabAtual: real&lt;/p&gt;&lt;hr&gt;&lt;p style=&quot;font-size: 10px ; margin: 0px ; text-align: center&quot;&gt;&lt;i&gt;properties&lt;/i&gt;&lt;/p&gt;&lt;p style=&quot;margin: 0px ; margin-left: 8px ; text-align: left&quot;&gt;TcabMin : Real = -30&lt;/p&gt;&lt;p style=&quot;margin: 0px ; margin-left: 8px ; text-align: left&quot;&gt;TcabMax: Real = 75&lt;/p&gt;&lt;p style=&quot;margin: 0px ; margin-left: 8px ; text-align: left&quot;&gt;Positivo: sinal = 1&lt;/p&gt;&lt;p style=&quot;margin: 0px ; margin-left: 8px ; text-align: left&quot;&gt;Negativo: sinal = 0&lt;/p&gt;&lt;p style=&quot;margin: 0px ; margin-left: 8px ; text-align: left&quot;&gt;UniTcab: string = &quot;°C&quot;&lt;/p&gt;" style="shape=rect;html=1;overflow=fill;verticalAlign=top;align=left;whiteSpace=wrap;fontSize=11;" vertex="1" parent="1">
          <mxGeometry x="1260" y="970" width="230" height="230" as="geometry" />
        </mxCell>
        <mxCell id="1j4Bzb_2BgSO1hPeJjLn-31" style="edgeStyle=orthogonalEdgeStyle;rounded=0;orthogonalLoop=1;jettySize=auto;html=1;fontSize=11;startArrow=none;startFill=0;endArrow=block;endFill=0;exitX=0.5;exitY=0;exitDx=0;exitDy=0;" edge="1" parent="1" source="1j4Bzb_2BgSO1hPeJjLn-29">
          <mxGeometry relative="1" as="geometry">
            <mxPoint x="1300" y="880" as="targetPoint" />
          </mxGeometry>
        </mxCell>
        <mxCell id="1j4Bzb_2BgSO1hPeJjLn-29" value="&lt;p style=&quot;margin: 0px ; margin-top: 4px ; text-align: center&quot;&gt;&amp;lt;&amp;lt;block&amp;gt;&amp;gt;&lt;/p&gt;&lt;p style=&quot;margin: 0px ; margin-top: 4px ; text-align: center&quot;&gt;&lt;b&gt;Disp Umidade&lt;/b&gt;&lt;/p&gt;&lt;hr&gt;&lt;p style=&quot;font-size: 10px ; margin: 0px ; text-align: center&quot;&gt;&lt;i&gt;constraints&lt;/i&gt;&lt;/p&gt;&lt;p style=&quot;margin: 0px ; margin-left: 8px ; text-align: left&quot;&gt;{UMin&amp;lt;UAtual&amp;lt;UMax}&lt;/p&gt;&lt;hr&gt;&lt;p style=&quot;font-size: 10px ; margin: 0px ; text-align: center&quot;&gt;&lt;/p&gt;&lt;p style=&quot;font-size: 10px ; margin: 0px ; text-align: center&quot;&gt;&lt;i&gt;values&lt;/i&gt;&lt;/p&gt;&lt;p style=&quot;margin: 0px ; margin-left: 8px ; text-align: left&quot;&gt;UAtual: real&lt;/p&gt;&lt;hr&gt;&lt;p style=&quot;font-size: 10px ; margin: 0px ; text-align: center&quot;&gt;&lt;i&gt;properties&lt;/i&gt;&lt;/p&gt;&lt;p style=&quot;margin: 0px ; margin-left: 8px ; text-align: left&quot;&gt;UMin : Real = 0&lt;/p&gt;&lt;p style=&quot;margin: 0px ; margin-left: 8px ; text-align: left&quot;&gt;UMax: Real = 100&lt;/p&gt;&lt;p style=&quot;margin: 0px ; margin-left: 8px ; text-align: left&quot;&gt;SimbUmid: string = &quot;%&quot;&lt;/p&gt;" style="shape=rect;html=1;overflow=fill;verticalAlign=top;align=left;whiteSpace=wrap;fontSize=11;" vertex="1" parent="1">
          <mxGeometry x="1493" y="970" width="230" height="230" as="geometry" />
        </mxCell>
      </root>
    </mxGraphModel>
  </diagram>
</mxfile>
